<svg width="543" height="542" viewBox="0 0 543 542" fill="none" xmlns="http://www.w3.org/2000/svg">
<path d="M133.904 0C145.173 0 154.309 8.78605 154.309 19.6241V59.2097C172.41 58.872 192.698 58.872 215.526 58.872H324.357C347.183 58.872 367.472 58.872 385.572 59.2097V19.6241C385.572 8.78605 394.708 0 405.979 0C417.247 0 426.385 8.78605 426.385 19.6241V60.946C465.544 63.9616 491.254 71.3629 510.14 89.5268C529.028 107.691 536.725 132.414 539.86 170.075L542.02 189.699H25.0782H0.0227051V170.075C3.15843 132.414 10.8545 107.691 29.7418 89.5268C48.6293 71.3629 74.3376 63.9616 113.498 60.946V19.6241C113.498 8.78605 122.634 0 133.904 0Z" fill="#597AE9"/>
<path d="M542.007 325.201V271.001C542.007 248.262 541.92 207.728 541.57 189.699H0.271264C-0.0785955 207.728 0.0100185 248.262 0.0100185 271.001V325.201C0.0100185 427.4 0.0100173 478.5 31.7594 510.25C63.5088 542 114.609 542 216.809 542H325.208C427.409 542 478.509 542 510.259 510.25C542.007 478.5 542.007 427.4 542.007 325.201Z" fill="#C9D0E7"/>
<path d="M341.785 251C296.365 251 258.397 282.957 249.087 325.64L85.7498 325.651C85.2517 332.369 85 339.155 85 346C85 352.845 85.2517 359.631 85.7498 366.349L249.087 366.354C258.394 409.042 296.362 441 341.785 441L355.34 441C370.314 441 382.45 428.848 382.45 413.857L382.45 407.071L436.668 407.071C447.897 407.071 457 397.957 457 386.714C457 375.472 447.897 366.357 436.668 366.357L382.45 366.357L382.45 325.643L436.668 325.643C447.897 325.643 457 316.528 457 305.286C457 294.043 447.897 284.929 436.668 284.929L382.45 284.929L382.45 278.143C382.45 263.152 370.314 251 355.34 251L341.785 251Z" fill="#597AE9"/>
</svg>
