<svg width="52" height="60" viewBox="0 0 52 60" fill="none" xmlns="http://www.w3.org/2000/svg">
<path d="M12.8448 0C13.9259 0 14.8024 0.946871 14.8024 2.11489V6.38102C16.5391 6.34462 18.4855 6.34462 20.6757 6.34462H31.1171C33.3071 6.34462 35.2536 6.34462 36.9902 6.38102V2.11489C36.9902 0.946871 37.8667 0 38.948 0C40.0291 0 40.9058 0.946871 40.9058 2.11489V6.56814C44.6628 6.89313 47.1294 7.69077 48.9414 9.64829C50.7535 11.6058 51.492 14.2702 51.7928 18.3289L52 20.4438H2.40386H0V18.3289C0.300846 14.2702 1.03922 11.6058 2.85129 9.64829C4.66339 7.69077 7.12988 6.89313 10.887 6.56814V2.11489C10.887 0.946871 11.7635 0 12.8448 0Z" fill="#5D688A"/>
<path d="M52 35.2964V29.3555C52 26.863 51.9917 22.42 51.9581 20.4438H0.026025C-0.00754043 22.42 0.00096117 26.863 0.00096117 29.3555V35.2964C0.00096117 46.4985 0.000961066 52.0997 3.04699 55.5798C6.09302 59.06 10.9956 59.06 20.8006 59.06H31.2004C41.0055 59.06 45.908 59.06 48.9541 55.5798C52 52.0997 52 46.4985 52 35.2964Z" fill="#ADC3C1"/>
<path d="M32.8502 27.2585C28.4547 27.2585 24.7804 30.6971 23.8794 35.2897L8.07256 35.2909C8.02436 36.0138 8 36.7439 8 37.4805C8 38.217 8.02436 38.9471 8.07256 39.67L23.8794 39.6705C24.7801 44.2637 28.4544 47.7024 32.8502 47.7024H34.1619C35.611 47.7024 36.7855 46.3948 36.7855 44.7818V44.0516H42.0324C43.1191 44.0516 44 43.071 44 41.8612C44 40.6516 43.1191 39.6709 42.0324 39.6709H36.7855V35.2901H42.0324C43.1191 35.2901 44 34.3093 44 33.0997C44 31.8899 43.1191 30.9093 42.0324 30.9093H36.7855V30.1791C36.7855 28.5661 35.611 27.2585 34.1619 27.2585H32.8502Z" fill="#5D688A"/>
</svg>
